<svg xmlns="http://www.w3.org/2000/svg" viewBox="0 0 24 24" width="24" height="24" fill="currentColor">
  <path d="M12 .5C5.65.5.5 5.65.5 12c0 5.08 3.29 9.39 7.86 10.91.57.1.78-.25.78-.55 0-.27-.01-1-.02-1.95-3.2.7-3.88-1.54-3.88-1.54-.52-1.33-1.27-1.69-1.27-1.69-1.04-.71.08-.69.08-.69 1.15.08 1.76 1.18 1.76 1.18 1.02 1.76 2.67 1.25 3.32.96.1-.75.4-1.25.72-1.54-2.56-.29-5.26-1.28-5.26-5.7 0-1.26.45-2.29 1.18-3.1-.12-.29-.51-1.47.11-3.06 0 0 .97-.31 3.18 1.18a11.06 11.06 0 012.9-.39c.98 0 1.97.13 2.9.39 2.2-1.5 3.17-1.18 3.17-1.18.62 1.59.23 2.77.11 3.06.73.81 1.18 1.84 1.18 3.1 0 4.43-2.71 5.41-5.29 5.69.41.35.78 1.03.78 2.08 0 1.5-.01 2.71-.01 3.08 0 .3.21.66.79.55C20.71 21.39 24 17.08 24 12 24 5.65 18.35.5 12 .5z"/>
</svg>
