<svg xmlns="http://www.w3.org/2000/svg" viewBox="0 0 533.5 544.3" width="24" height="24">
  <path fill="#4285f4" d="M533.5 278.4c0-17.7-1.6-35.6-4.9-52.6H272v99.6h147.2c-6.4 34.9-26.6 64.4-56.8 84.3v69h91.6c53.6-49.4 84.5-122.3 84.5-200.3z"/>
  <path fill="#34a853" d="M272 544.3c73.6 0 135.5-24.4 180.7-66.2l-91.6-69c-25.4 17.1-57.9 27.2-89.1 27.2-68.5 0-126.6-46.1-147.4-108.1H31.1v67.9C75.9 480.7 167 544.3 272 544.3z"/>
  <path fill="#fbbc04" d="M124.6 325.3c-10.8-31.6-10.8-65.5 0-97.1V160.3H31.1c-39.3 78.7-39.3 172.3 0 251z"/>
  <path fill="#ea4335" d="M272 107.7c37.9-.6 74.3 13.3 102 38.2l76.6-76.6C405.7 24.1 344.7.5 272 0 167 0 75.9 63.6 31.1 160.3l93.5 67.9C145.4 154 203.5 107.7 272 107.7z"/>
</svg>
